<svg>
  <symbol id="icon-trailer"  viewBox="0 0 52 24" xmlns="http://www.w3.org/2000/svg">
    <path clip-rule="evenodd" d="M45.6661 18.3721C45.6661 17.875 46.0694 17.4717 46.5665 17.4717C47.0635 17.4717 47.4669 17.875 47.4669 18.3721V23.0996C47.4669 23.5967 47.0635 24 46.5665 24C46.0694 24 45.6661 23.5967 45.6661 23.0996V21.0615H21.1568C20.761 22.7438 19.2589 24 17.4556 24C15.6523 24 14.1501 22.7438 13.7543 21.0615H10.1877C8.67981 21.0615 7.17194 20.5588 6.16675 19.428C5.1615 18.2971 4.5332 16.9149 4.5332 15.407V5.8573C4.5332 2.71588 7.04633 0.20282 10.1877 0.20282H36.5751C39.7165 0.20282 42.2296 2.71588 42.3552 5.8573V15.5327C42.3552 16.9149 41.8526 18.2971 40.8474 19.3023H45.6661V18.3721ZM17.4556 22.2C18.2505 22.2 18.9329 21.7325 19.2592 21.0615C19.3881 20.7964 19.4667 20.5028 19.4667 20.1888C19.4667 19.8518 19.3755 19.5388 19.2283 19.2595C18.8913 18.6198 18.2275 18.1777 17.4556 18.1777C16.6768 18.1777 16.0076 18.6273 15.6736 19.2763C15.532 19.5515 15.4445 19.8586 15.4445 20.1888C15.4445 20.5028 15.5231 20.7964 15.6519 21.0615C15.9781 21.7325 16.6606 22.2 17.4556 22.2ZM33.1192 12.6956H34.5235V6.37134C34.5235 6.26099 34.4327 6.17114 34.3223 6.17114H28.5596C28.4493 6.17114 28.3594 6.26099 28.3594 6.37134V19.2162L34.5235 19.187V13.8948H33.1192C32.7881 13.8948 32.5196 13.6262 32.5196 13.2952C32.5196 12.9641 32.7881 12.6956 33.1192 12.6956ZM35.7227 19.1813L36.7007 19.1766C38.8369 19.1766 40.4704 17.5432 40.4704 15.407L40.3447 5.8573C40.3447 3.8468 38.7112 2.08765 36.5751 2.08765H10.1877C8.17719 2.08765 6.41803 3.8468 6.41803 5.8573V15.5327C6.41803 16.5379 6.79498 17.4175 7.54895 18.1714C8.17719 18.9254 9.18243 19.3023 10.1877 19.3023L13.7639 19.2853C14.1712 17.619 15.6637 16.3777 17.4556 16.3777C19.2347 16.3777 20.7165 17.6021 21.1364 19.2504L27.1602 19.2219V6.37134C27.1602 5.59985 27.7881 4.97192 28.5596 4.97192H34.3223C35.0948 4.97192 35.7227 5.59985 35.7227 6.37134V19.1813ZM10.7461 5.01392H21.0615C21.833 5.01392 22.4609 5.64185 22.4609 6.41333V11.7961C22.4609 12.5676 21.833 13.1956 21.0615 13.1956H10.7461C9.97363 13.1956 9.3457 12.5676 9.3457 11.7961V6.41333C9.3457 5.64185 9.97363 5.01392 10.7461 5.01392ZM10.5449 6.41333V11.7961C10.5449 11.9065 10.6357 11.9963 10.7461 11.9963H15.4033V6.21313H10.7461C10.6357 6.21313 10.5449 6.30298 10.5449 6.41333ZM21.0615 11.9963C21.1719 11.9963 21.2617 11.9065 21.2617 11.7961V6.41333C21.2617 6.30298 21.1719 6.21313 21.0615 6.21313H16.4033V11.9963H21.0615Z"></path>
  </symbol>

  <symbol id="icon-fwheel" viewBox="0 0 52 24" xmlns="http://www.w3.org/2000/svg">
    <path fill-rule="evenodd" clip-rule="evenodd" d="M50.4474 5.9801L51.4494 10.9606C51.5929 11.6559 51.4347 12.3893 51.0138 12.9674C50.5929 13.5455 49.9425 13.9215 49.2306 13.9977L46.3251 14.117L46.6222 14.9186H49.6972C50.1113 14.9186 50.4472 15.2545 50.4472 15.6686C50.4472 16.0826 50.1113 16.4186 49.6972 16.4186H49.0751V17.3594C49.0751 17.7735 48.7392 18.1094 48.3251 18.1094C47.9111 18.1094 47.5751 17.7735 47.5751 17.3594V16.4186H46.0995C45.786 16.4186 45.5055 16.2234 45.3966 15.9293L44.7495 14.1818L40.9572 14.3375C40.7599 14.36 40.5412 14.5143 40.4288 14.7448L38.2199 19.7067C37.7833 20.6051 36.8898 21.1627 35.922 21.1627C35.9093 21.1627 35.8966 21.1627 35.8839 21.1617L20.9989 21.13C20.8902 21.5609 20.7198 21.9676 20.4779 22.3257C20.2049 22.7298 19.8562 23.0785 19.4521 23.3514C19.048 23.6245 18.5886 23.8217 18.0942 23.9229C17.847 23.9734 17.591 24 17.3289 24C15.6826 24 14.2946 22.9464 13.7679 21.4814C13.2412 22.9464 11.8532 24 10.2069 24C8.42006 24 6.93178 22.7615 6.5273 21.0992L2.98519 21.0916C2.18288 21.0916 1.58113 20.4899 1.48085 19.7878L0.527422 14.2107C0.494585 14.0186 0.490007 13.8226 0.513872 13.6292L1.88197 2.52411C1.98226 1.82208 2.584 1.22034 3.38631 1.22034L9.37074 1.22052L9.38064 1.18572C9.58223 0.476901 9.71786 0 10.6184 0H18.7468C19.6622 0 20.4534 0.492615 20.8997 1.22083L33.1243 1.22113L33.1343 1.18583C33.3359 0.476918 33.4715 0 34.3721 0H40.5006C41.4162 0 42.2075 0.49292 42.6538 1.22137L46.1378 1.2215C46.8771 1.2215 47.5783 1.54279 48.0617 2.10333L49.8986 4.8551C50.1662 5.16467 50.3605 5.5592 50.4474 5.9801ZM10.2069 22.2C10.9797 22.2 11.6438 21.7543 11.9758 21.1108C12.1171 20.837 12.2045 20.5312 12.2045 20.2025C12.2045 19.8706 12.1154 19.5621 11.9716 19.2864C11.6381 18.6471 10.9766 18.2049 10.2069 18.2049C9.43733 18.2049 8.77577 18.6471 8.44228 19.2864C8.29848 19.5621 8.20937 19.8706 8.20937 20.2025C8.20937 20.5281 8.29518 20.8313 8.43398 21.1032C8.76467 21.7509 9.43117 22.2 10.2069 22.2ZM17.3289 22.2C18.0954 22.2 18.7547 21.7611 19.0895 21.1259C19.2357 20.8484 19.3264 20.5374 19.3264 20.2025C19.3264 19.8706 19.2373 19.5621 19.0935 19.2864C18.76 18.6471 18.0985 18.2049 17.3289 18.2049C16.5592 18.2049 15.8977 18.6471 15.5642 19.2864C15.4204 19.5621 15.3313 19.8706 15.3313 20.2025C15.3313 20.5343 15.4204 20.8428 15.5642 21.1184C15.8976 21.7578 16.5592 22.2 17.3289 22.2ZM33.0534 14.0692H34.4577V7.74591C34.4577 7.63556 34.3668 7.54572 34.2565 7.54572H30.5895C30.4791 7.54572 30.3893 7.63556 30.3893 7.74591V19.2864H34.4577V15.2684H33.0534C32.7223 15.2684 32.4538 14.9998 32.4538 14.6688C32.4538 14.3377 32.7223 14.0692 33.0534 14.0692ZM49.0978 12.2037C49.2492 12.1862 49.4337 12.0787 49.5587 11.9078C49.6837 11.7369 49.7287 11.528 49.6857 11.3219L48.6837 6.34143L48.585 6.10388L46.6847 3.26251C46.5578 3.11603 46.3537 3.02228 46.1378 3.02228L4.21663 3.02545C3.91438 3.02545 3.65914 3.24994 3.6205 3.54968L2.30983 13.7141C2.29207 13.8516 2.28871 13.9906 2.2997 14.1288L2.4695 15.1617C2.51237 15.1617 2.67399 15.1599 2.88814 15.1574L2.88846 15.1574C3.30883 15.1525 3.9314 15.1452 4.25557 15.1452C4.52596 15.1452 4.73976 15.3746 4.73976 15.645V16.4221C4.73976 16.6982 4.51589 16.9221 4.23976 16.9221H2.7516L3.08925 18.8041C3.14534 19.0845 3.39162 19.2864 3.67763 19.2864H6.53328C6.94484 17.6341 8.42714 16.4049 10.2069 16.4049C11.8532 16.4049 13.2412 17.4586 13.7679 18.9235C14.2946 17.4586 15.6826 16.4049 17.3289 16.4049C17.591 16.4049 17.847 16.4315 18.0942 16.4821C18.5886 16.5833 19.048 16.7805 19.4521 17.0535C19.8562 17.3264 20.2049 17.6751 20.4779 18.0792C20.722 18.4406 20.8941 18.8511 21.0025 19.2864H29.1901V7.74591C29.1901 6.97443 29.818 6.3465 30.5895 6.3465H34.2565C35.0289 6.3465 35.6569 6.97443 35.6569 7.74591V19.2864H35.9113C36.1984 19.2757 36.463 19.2047 36.588 18.9469L38.797 13.985C39.1945 13.1647 39.9484 12.6364 40.8253 12.5436L49.0978 12.2037ZM16.1188 5.14825H24.7448C25.5163 5.14825 26.1442 5.77618 26.1442 6.54865V12.3006C26.1442 13.0721 25.5163 13.7 24.7448 13.7H16.1188C15.3474 13.7 14.7194 13.0721 14.7194 12.3006V6.54865C14.7194 5.77618 15.3474 5.14825 16.1188 5.14825ZM24.7448 12.5008C24.8552 12.5008 24.945 12.4109 24.945 12.3006V6.54865C24.945 6.43829 24.8552 6.34747 24.7448 6.34747H16.1188C16.0085 6.34747 15.9186 6.43829 15.9186 6.54865V12.3006C15.9186 12.4109 16.0085 12.5008 16.1188 12.5008H24.7448ZM11.5729 6.63165H7.19598C6.4245 6.63165 5.79657 7.25958 5.79657 8.03107V10.8172C5.79657 11.5887 6.4245 12.2166 7.19598 12.2166H11.5729C12.3444 12.2166 12.9724 11.5887 12.9724 10.8172V8.03107C12.9724 7.25958 12.3444 6.63165 11.5729 6.63165ZM11.7731 10.8172C11.7731 10.9276 11.6833 11.0174 11.5729 11.0174H7.19598C7.08563 11.0174 6.99579 10.9276 6.99579 10.8172V8.03107C6.99579 7.92072 7.08563 7.83087 7.19598 7.83087H11.5729C11.6833 7.83087 11.7731 7.92072 11.7731 8.03107V10.8172ZM45.1198 5.02423C45.6833 5.02423 46.1891 5.35919 46.4089 5.87872L47.0056 7.28888C47.1891 7.7215 47.1432 8.21466 46.8835 8.60724C46.6237 8.99884 46.1872 9.23322 45.7165 9.23322H41.364C40.5925 9.23322 39.9645 8.60529 39.9645 7.8338V6.42365C39.9645 5.65216 40.5925 5.02423 41.364 5.02423H45.1198ZM45.7165 8.034C45.8102 8.034 45.861 7.97736 45.8835 7.94415C45.905 7.91095 45.9372 7.84259 45.9001 7.75665L45.3034 6.34552C45.2722 6.2713 45.1999 6.22345 45.1198 6.22345H41.364C41.2536 6.22345 41.1638 6.31329 41.1638 6.42365V7.8338C41.1638 7.94415 41.2536 8.034 41.364 8.034H45.7165Z"></path>
  </symbol>

  <symbol id="icon-classC"  viewBox="0 0 52 24" xmlns="http://www.w3.org/2000/svg">
    <path fill-rule="evenodd" clip-rule="evenodd" d="M49.3712 13.5197H48.7423L44.7598 7.96509H46.1223C46.9606 7.96509 47.6943 7.4411 48.1135 6.91705C48.6375 6.18341 48.6375 5.34503 48.2183 4.61139L47.4847 2.93451C46.751 1.25769 44.8646 0 42.7685 0H4.15594C3.89325 0 3.68134 0.212891 3.68134 0.475098C3.68134 0.737305 3.89325 0.950195 4.15594 0.950195H7.34491V1.67688H3.46722C1.68555 1.67688 0.113525 3.1441 0.113525 5.03058V22.0088H13.5402C14.1877 23.1898 15.4274 24 16.8693 24C18.3112 24 19.5508 23.1898 20.1983 22.0088H42.4451C43.0926 23.1898 44.3323 24 45.7742 24C47.216 24 48.4557 23.1898 49.1031 22.0088H49.9999C51.3962 21.8903 51.8864 20.8559 51.8864 19.5983V16.035C51.7816 14.6725 50.7336 13.5197 49.3712 13.5197ZM47.2751 14.2533H41.9858C41.64 14.2533 41.3333 14.031 41.2256 13.7023L39.4148 8.17468H42.7686L47.2751 14.2533ZM21.703 0.950195H26.9349C26.4136 1.46838 25.8914 1.67688 25.1616 1.67688H21.703V0.950195ZM14.9956 0.950195H20.8646V1.67688H14.9956V0.950195ZM8.18335 0.950195H14.0524V1.67688H8.18335V0.950195ZM16.8693 22.2C16.5674 22.2 16.2838 22.1284 16.0266 22.0088C15.35 21.694 14.8772 21.0176 14.862 20.2271C14.8619 20.2208 14.861 20.2148 14.8601 20.2087C14.8591 20.2022 14.8582 20.1957 14.8582 20.1889C14.8582 19.08 15.7603 18.1777 16.8693 18.1777C17.9782 18.1777 18.8804 19.08 18.8804 20.1889C18.8804 20.1957 18.8795 20.2022 18.8785 20.2087C18.8776 20.2148 18.8767 20.2208 18.8766 20.2271C18.8614 21.0176 18.3885 21.694 17.712 22.0088C17.4548 22.1284 17.1711 22.2 16.8693 22.2ZM33.0336 14.1357H31.6274C31.2963 14.1357 31.0278 14.4042 31.0278 14.7358C31.0278 15.0673 31.2963 15.3359 31.6274 15.3359H33.0336V20.2271H28.9653V7.81537C28.9653 7.70502 29.0551 7.61517 29.1655 7.61517H32.8334C32.9438 7.61517 33.0336 7.70502 33.0336 7.81537V14.1357ZM37.2139 7.00055V20.2271H34.2328V7.81537C34.2328 7.0434 33.6049 6.41498 32.8334 6.41498H29.1655C28.394 6.41498 27.7661 7.0434 27.7661 7.81537V20.2271H20.6766C20.6766 20.2207 20.6776 20.2145 20.6785 20.2083C20.6795 20.2019 20.6804 20.1955 20.6804 20.1889C20.6804 18.084 18.9741 16.3777 16.8693 16.3777C14.7644 16.3777 13.0581 18.084 13.0581 20.1889C13.0581 20.1955 13.0591 20.2019 13.06 20.2083C13.0606 20.212 13.0611 20.2156 13.0615 20.2193C13.0618 20.2219 13.0619 20.2245 13.062 20.2271H1.79034V5.03058C1.79034 4.10449 2.54108 3.35376 3.46722 3.35376H25.1616C26.2096 3.35376 27.3624 2.82971 28.2008 2.20093C28.4105 1.99127 28.9344 1.67688 29.2488 1.67688H42.7685C44.131 1.67688 45.3886 2.51532 45.9126 3.66815L46.6462 5.34503C46.751 5.65942 46.6555 6.07727 46.3521 6.33972C46.2126 6.45453 46.0814 6.49786 45.9126 6.49786C45.6492 6.49786 39.7432 6.42456 37.8161 6.40057C37.4818 6.39636 37.2139 6.66626 37.2139 7.00055ZM45.7742 22.2C45.4723 22.2 45.1886 22.1284 44.9314 22.0088C44.2437 21.6888 43.763 20.996 43.763 20.1889C43.763 20.1768 43.7647 20.1651 43.7664 20.1534C43.7679 20.1432 43.7694 20.1329 43.7697 20.1223C43.8058 19.0448 44.688 18.1777 45.7742 18.1777C46.8603 18.1777 47.7425 19.0448 47.7786 20.1223C47.7789 20.1329 47.7804 20.1432 47.7819 20.1534C47.7836 20.1651 47.7853 20.1768 47.7853 20.1889C47.7853 20.996 47.3046 21.6888 46.6169 22.0088C46.3597 22.1284 46.076 22.2 45.7742 22.2ZM50.1047 19.4989C50.1047 19.8094 49.8737 20.0555 49.5766 20.1031C49.5298 18.0389 47.8495 16.3777 45.7742 16.3777C43.6921 16.3777 42.0062 18.049 41.9697 20.1223H38.9955V9.95636L40.4944 14.6404C40.6005 14.9717 40.9085 15.1965 41.2564 15.1965H49.3711C49.6855 15.1965 50.1047 15.5109 50.1047 15.9302V19.4989ZM13.228 7.81534C13.228 7.04337 12.6001 6.41495 11.8286 6.41495H5.97217C5.20068 6.41495 4.57275 7.04337 4.57275 7.81534V10.4828C4.57275 11.2548 5.20068 11.8827 5.97217 11.8827H11.8286C12.6001 11.8827 13.228 11.2548 13.228 10.4828V7.81534ZM8.40088 10.6825H5.97217C5.86182 10.6825 5.77197 10.5932 5.77197 10.4828V7.81534C5.77197 7.70499 5.86182 7.61514 5.97217 7.61514H8.40088V10.6825ZM12.0288 10.4828C12.0288 10.5932 11.939 10.6825 11.8286 10.6825H9.40088V7.61514H11.8286C11.939 7.61514 12.0288 7.70499 12.0288 7.81534V10.4828ZM23.3569 11.8827H17.5005C16.729 11.8827 16.1011 11.2548 16.1011 10.4828V7.81534C16.1011 7.04337 16.729 6.41495 17.5005 6.41495H23.3569C24.1284 6.41495 24.7563 7.04337 24.7563 7.81534V10.4828C24.7563 11.2548 24.1284 11.8827 23.3569 11.8827ZM23.3569 7.61514H20.9282V10.6825H23.3569C23.4673 10.6825 23.5571 10.5932 23.5571 10.4828V7.81534C23.5571 7.70499 23.4673 7.61514 23.3569 7.61514ZM17.5005 7.61514C17.3901 7.61514 17.3003 7.70499 17.3003 7.81534V10.4828C17.3003 10.5932 17.3901 10.6825 17.5005 10.6825H19.9282V7.61514H17.5005Z"></path>
  </symbol>

  <symbol id="icon-classA"  viewBox="0 0 52 24" xmlns="http://www.w3.org/2000/svg">
    <path fill-rule="evenodd" clip-rule="evenodd" d="M51.9351 15.2524C51.9282 14.4018 51.8149 13.5527 51.6001 12.7407L49.3218 3.60101C48.9526 2.19818 47.6812 1.2182 46.23 1.2182H39.3093C38.8627 0.491516 38.0723 0 37.1581 0H31.0297C30.1291 0 29.9935 0.476893 29.792 1.18569L29.7827 1.2182H18.3038C17.8572 0.491516 17.0668 0 16.1526 0H8.02417C7.12363 0 6.98802 0.476893 6.78647 1.18569L6.77722 1.2182H2.73193C1.24365 1.2182 0.0317383 2.42914 0.0317383 3.91791V17.9501C0.0317383 19.2187 0.933105 20.33 2.18311 20.5937L9.02783 21.9697C9.21143 22.0087 9.39893 22.0283 9.58545 22.0283H10.5965C11.247 23.1986 12.481 24 13.915 24C15.3489 24 16.5829 23.1986 17.2334 22.0283H41.3288C41.9793 23.1986 43.2133 24 44.6473 24C46.0812 24 47.3152 23.1986 47.9658 22.0283H49.1978C49.9399 22.0283 50.6372 21.7387 51.1616 21.2123C51.6851 20.6865 51.9712 19.9877 51.9683 19.2426L51.9351 15.2524ZM49.8181 13.0322H43.3813C43.2788 13.0322 43.1958 12.9428 43.1958 12.8325V7.32416C43.1958 7.21381 43.2788 7.12445 43.3813 7.12445H48.3455L49.8181 13.0322ZM13.915 22.2C13.6277 22.2 13.3556 22.1373 13.1082 22.0283C12.412 21.7216 11.9239 21.0328 11.9078 20.2285C11.9077 20.2219 11.9068 20.2156 11.9058 20.2093C11.9048 20.2026 11.9038 20.1958 11.9038 20.1888C11.9038 19.0799 12.806 18.1777 13.915 18.1777C15.0239 18.1777 15.9261 19.0799 15.9261 20.1888C15.9261 20.1958 15.9251 20.2026 15.9241 20.2093C15.9231 20.2156 15.9222 20.2219 15.9221 20.2285C15.906 21.0328 15.4178 21.7216 14.7217 22.0283C14.4743 22.1373 14.2023 22.2 13.915 22.2ZM38.1812 14.6738H36.7769C36.4458 14.6738 36.1772 14.9423 36.1772 15.2739C36.1772 15.6054 36.4458 15.874 36.7769 15.874H38.1812V20.2285H34.1138V8.35101C34.1138 8.24066 34.2036 8.15131 34.314 8.15131H37.981C38.0913 8.15131 38.1812 8.24066 38.1812 8.35101V14.6738ZM44.6473 22.2C44.36 22.2 44.088 22.1373 43.8405 22.0283C43.1445 21.7216 42.6562 21.0328 42.6402 20.2285C42.6401 20.2219 42.6391 20.2156 42.6382 20.2093C42.6372 20.2026 42.6362 20.1958 42.6362 20.1888C42.6362 19.0799 43.5383 18.1777 44.6473 18.1777C45.7562 18.1777 46.6584 19.0799 46.6584 20.1888C46.6584 20.1958 46.6574 20.2026 46.6564 20.2093C46.6555 20.2156 46.6545 20.2219 46.6544 20.2285C46.6384 21.0328 46.1501 21.7216 45.4541 22.0283C45.2067 22.1373 44.9346 22.2 44.6473 22.2ZM49.8853 19.9423C49.7017 20.1269 49.4575 20.2285 49.1978 20.2285H48.4545C48.4545 20.2252 48.4547 20.2219 48.4551 20.2187C48.4555 20.2155 48.456 20.2122 48.4565 20.209C48.4574 20.2023 48.4584 20.1957 48.4584 20.1888C48.4584 18.084 46.7521 16.3777 44.6473 16.3777C42.5424 16.3777 40.8361 18.084 40.8361 20.1888C40.8361 20.1957 40.8371 20.2023 40.8381 20.209C40.8387 20.213 40.8393 20.2171 40.8397 20.2213C40.8399 20.2237 40.8401 20.226 40.8401 20.2285H39.3804V8.35101C39.3804 7.57904 38.7524 6.95111 37.981 6.95111H34.314C33.5425 6.95111 32.9146 7.57904 32.9146 8.35101V20.2285H17.7221C17.7222 20.2218 17.7231 20.2154 17.7241 20.209C17.7251 20.2023 17.7261 20.1957 17.7261 20.1888C17.7261 18.084 16.0198 16.3777 13.915 16.3777C11.8101 16.3777 10.1038 18.084 10.1038 20.1888C10.1038 20.1957 10.1048 20.2023 10.1058 20.209C10.1068 20.2154 10.1077 20.2218 10.1078 20.2285H9.58545C9.52393 20.2285 9.4624 20.2216 9.39209 20.207L2.54639 18.831C2.13232 18.7436 1.83252 18.373 1.83252 17.9501V17.3224H3.02673C3.30286 17.3224 3.52673 17.0986 3.52673 16.8224V16.0674C3.52673 15.7913 3.30286 15.5674 3.02673 15.5674H1.83252V3.91791C1.83252 3.42181 2.23584 3.01801 2.73193 3.01801H46.23C46.8647 3.01801 47.4204 3.44623 47.5786 4.04779L48.0463 5.92426H43.3813C42.6177 5.92426 41.9966 6.55219 41.9966 7.32416V12.8325C41.9966 13.6044 42.6177 14.2324 43.3813 14.2324H50.0618C50.107 14.5751 50.1319 14.9205 50.1343 15.2665L50.1368 15.5674H49.5991C49.323 15.5674 49.0991 15.7913 49.0991 16.0674V17.743C49.0991 18.0191 49.323 18.243 49.5991 18.243H50.1591L50.1675 19.2543C50.1694 19.5141 50.0688 19.7582 49.8853 19.9423ZM19.1069 5.92425H6.42139C5.64893 5.92425 5.021 6.55218 5.021 7.32415V11.2944C5.021 12.0663 5.64893 12.6943 6.42139 12.6943H19.1069C19.8784 12.6943 20.5063 12.0663 20.5063 11.2944V7.32415C20.5063 6.55218 19.8784 5.92425 19.1069 5.92425ZM19.3071 11.2944C19.3071 11.4047 19.2173 11.4941 19.1069 11.4941H6.42139C6.31103 11.4941 6.22021 11.4047 6.22021 11.2944V7.32415C6.22021 7.2138 6.31103 7.12444 6.42139 7.12444H19.1069C19.2173 7.12444 19.3071 7.2138 19.3071 7.32415V11.2944ZM23.3022 5.92425H28.9995C29.771 5.92425 30.3989 6.55218 30.3989 7.32415V11.2944C30.3989 12.0663 29.771 12.6943 28.9995 12.6943H23.3022C22.5308 12.6943 21.9028 12.0663 21.9028 11.2944V7.32415C21.9028 6.55218 22.5308 5.92425 23.3022 5.92425ZM28.9995 11.4941C29.1099 11.4941 29.1997 11.4047 29.1997 11.2944V7.32415C29.1997 7.2138 29.1099 7.12444 28.9995 7.12444H23.3022C23.1919 7.12444 23.1021 7.2138 23.1021 7.32415V11.2944C23.1021 11.4047 23.1919 11.4941 23.3022 11.4941H28.9995Z"></path>
  </symbol>

  <symbol id="icon-auto"  viewBox="0 0 33 33" xmlns="http://www.w3.org/2000/svg">
    <path d="M23.1667 15.1667H25.1667C25.6971 15.1667 26.2058 14.956 26.5809 14.5809C26.956 14.2058 27.1667 13.6971 27.1667 13.1667C27.1667 12.6362 26.956 12.1275 26.5809 11.7525C26.2058 11.3774 25.6971 11.1667 25.1667 11.1667H23.1667V17.8333M23.1667 23.1667V28.5H24.5C25.2072 28.5 25.8855 28.219 26.3856 27.719C26.8857 27.2189 27.1667 26.5406 27.1667 25.8333C27.1667 25.1261 26.8857 24.4478 26.3856 23.9477C25.8855 23.4476 25.2072 23.1667 24.5 23.1667H23.1667ZM4.5 7.16667C4.5 7.87391 4.78095 8.55219 5.28105 9.05229C5.78115 9.55238 6.45942 9.83333 7.16667 9.83333C7.87391 9.83333 8.55219 9.55238 9.05229 9.05229C9.55238 8.55219 9.83333 7.87391 9.83333 7.16667C9.83333 6.45942 9.55238 5.78115 9.05229 5.28105C8.55219 4.78095 7.87391 4.5 7.16667 4.5C6.45942 4.5 5.78115 4.78095 5.28105 5.28105C4.78095 5.78115 4.5 6.45942 4.5 7.16667Z" stroke-width="1.8" stroke-linecap="round" stroke-linejoin="round"/>
    <path d="M7.16675 9.83333V13.8333C7.16675 14.187 7.30722 14.5261 7.55727 14.7761C7.80732 15.0262 8.14646 15.1667 8.50008 15.1667H12.5001M12.5001 15.1667V24.5C12.5001 24.8536 12.6406 25.1928 12.8906 25.4428C13.1407 25.6929 13.4798 25.8333 13.8334 25.8333H17.8334M12.5001 15.1667H17.8334"  stroke-width="1.8" stroke-linecap="round" stroke-linejoin="round"/>
  </symbol>

  <symbol id="icon-kitchen"   viewBox="0 0 21 27" xmlns="http://www.w3.org/2000/svg">
    <path d="M19.8334 17.5V1.5C13.4121 7.62533 13.1361 12.592 13.1667 17.5H19.8334ZM19.8334 17.5V25.5H18.5001V21.5M5.16675 2.83333V25.5M1.16675 2.83333V6.83333C1.16675 7.8942 1.58818 8.91162 2.33832 9.66176C3.08847 10.4119 4.10588 10.8333 5.16675 10.8333C6.22761 10.8333 7.24503 10.4119 7.99518 9.66176C8.74532 8.91162 9.16675 7.8942 9.16675 6.83333V2.83333" stroke-width="1.8" stroke-linecap="round" stroke-linejoin="round"/>
  </symbol>

  <symbol id="icon-tv"  viewBox="0 0 32 33" xmlns="http://www.w3.org/2000/svg">
    <path d="M24 26.5H8C5.784 26.5 4 24.716 4 22.5V12.5C4 10.284 5.784 8.5 8 8.5H24C26.216 8.5 28 10.284 28 12.5V22.5C28 24.716 26.216 26.5 24 26.5Z" stroke-width="1.8" stroke-linecap="round" stroke-linejoin="round"/>
    <path d="M12 30.5H20"  stroke-width="1.8" stroke-linecap="round" stroke-linejoin="round"/>
    <path d="M16 8.5L22 2.5"  stroke-width="1.8" stroke-linecap="round" stroke-linejoin="round"/>
    <path d="M16 8.5L10 2.5"  stroke-width="1.8" stroke-linecap="round" stroke-linejoin="round"/>
  </symbol>

  <symbol id="icon-shwc"  viewBox="0 0 24 25" xmlns="http://www.w3.org/2000/svg">
    <path d="M1.33325 1.83334L4.66659 5.16667M13.9999 5.16667C12.758 3.94958 11.0859 3.27178 9.34706 3.28056C7.6082 3.28934 5.94306 3.984 4.71349 5.21357C3.48391 6.44315 2.78926 8.10828 2.78048 9.84714C2.77169 11.586 3.44949 13.2581 4.66659 14.5M15.9999 3.16667L2.66659 16.5M14.6666 19.1667V19.18M9.33325 17.8333V17.8467M13.3333 13.8333V13.8467M17.3333 9.83334V9.84667M10.6666 23.1667V23.18M18.6666 15.1667V15.18M22.6666 11.1667V11.18" stroke-width="2" stroke-linecap="round" stroke-linejoin="round"/>
  </symbol>

  <symbol id="icon-ac"  viewBox="0 0 32 32" xmlns="http://www.w3.org/2000/svg">
    <path d="M13 10.761c0.041-0.005 0.077-0.013 0.112-0.023l-0.005 0.001c2.573-0.062 4.634-2.162 4.634-4.744 0-2.621-2.124-4.745-4.745-4.745-2.176 0-4.011 1.465-4.57 3.463l-0.008 0.033-0.009 0.018c-0.105 0.372-0.165 0.8-0.165 1.241v0c0 0.414 0.336 0.75 0.75 0.75s0.75-0.336 0.75-0.75v0c0.001-0.299 0.041-0.588 0.116-0.863l-0.005 0.023 0.007-0.015c0.386-1.395 1.644-2.402 3.138-2.402 1.795 0 3.25 1.455 3.25 3.25s-1.455 3.25-3.25 3.25v0c-0.019 0-0.034 0.009-0.053 0.011l-10.932-0.011c-0 0-0 0-0 0-0.414 0-0.75 0.336-0.75 0.75s0.336 0.75 0.749 0.75l10.985 0.011zM24.469 5.369c-2.875 0.003-5.298 1.936-6.045 4.572l-0.011 0.044-0.015 0.030c-0.138 0.49-0.217 1.053-0.217 1.634 0 0.003 0 0.005 0 0.008v-0c0 0.414 0.336 0.75 0.75 0.75s0.75-0.336 0.75-0.75v0c0-0.002 0-0.004 0-0.006 0-0.44 0.060-0.866 0.173-1.269l-0.008 0.033 0.007-0.014c0.568-2.052 2.419-3.533 4.615-3.533 2.641 0 4.781 2.141 4.781 4.781s-2.141 4.781-4.781 4.781c-0 0-0 0-0 0v0c-0.029 0.004-0.053 0.009-0.077 0.016l0.005-0.001-20.34-0.020c-0 0-0 0-0 0-0.414 0-0.75 0.336-0.75 0.75s0.336 0.75 0.749 0.75l20.413 0.021c0.054-0.005 0.103-0.016 0.151-0.031l-0.005 0.001c3.405-0.077 6.136-2.856 6.136-6.273 0-3.465-2.809-6.274-6.274-6.274-0.003 0-0.006 0-0.008 0h0zM22.718 19.809c-0.033-0.010-0.072-0.018-0.113-0.023l-0.003-0-18.546 0.018c-0.414 0-0.75 0.336-0.75 0.75s0.336 0.75 0.75 0.75c0 0 0 0 0.001 0l18.487-0.018c0.020 0.002 0.037 0.012 0.058 0.012 0 0 0 0 0 0 2.178 0 3.943 1.765 3.943 3.943s-1.765 3.943-3.943 3.943c-1.812 0-3.338-1.222-3.8-2.886l-0.007-0.028-0.007-0.015c-0.085-0.306-0.135-0.657-0.135-1.020v-0c0-0.001 0-0.003 0-0.004 0-0.414-0.336-0.75-0.75-0.75s-0.75 0.336-0.75 0.75c0 0.001 0 0.003 0 0.004v-0c0 0.003 0 0.006 0 0.010 0 0.502 0.068 0.989 0.197 1.45l-0.009-0.038 0.010 0.014c0.647 2.335 2.753 4.020 5.253 4.020 3.005 0 5.442-2.436 5.442-5.442 0-2.965-2.372-5.376-5.321-5.44l-0.006-0z"></path>
  </symbol>


  <symbol id="icon-star"  viewBox="0 0 15 16" xmlns="http://www.w3.org/2000/svg">
    <path d="M6.20021 4.69703L8 1.28579L9.79979 4.69703C9.95896 4.9987 10.2491 5.20947 10.5851 5.26762L14.3856 5.92519L11.6975 8.69103C11.4598 8.93563 11.3489 9.27666 11.3975 9.61427L11.9465 13.4319L8.48537 11.7301C8.17929 11.5795 7.82071 11.5796 7.51463 11.7301L4.05348 13.4319L4.6025 9.61427C4.65105 9.27666 4.54024 8.93563 4.30252 8.69103L1.6144 5.92519L5.41486 5.26762C5.75095 5.20947 6.04104 4.9987 6.20021 4.69703ZM14.5177 5.78928L14.5175 5.78947L14.5177 5.78928ZM3.8834 13.5155C3.88344 13.5155 3.88349 13.5155 3.88353 13.5155L3.8834 13.5155Z" stroke-width="1.2"/>
  </symbol>

  <symbol id="icon-pin"  viewBox="0 0 16 16" xmlns="http://www.w3.org/2000/svg">
    <path d="M14 6.66667C14 11.3333 8 15.3333 8 15.3333C8 15.3333 2 11.3333 2 6.66667C2 5.07537 2.63214 3.54925 3.75736 2.42403C4.88258 1.29881 6.4087 0.666672 8 0.666672C9.5913 0.666672 11.1174 1.29881 12.2426 2.42403C13.3679 3.54925 14 5.07537 14 6.66667Z"  stroke-width="1.3" stroke-linecap="round" stroke-linejoin="round"/>
    <path d="M8 8.66667C9.10457 8.66667 10 7.77124 10 6.66667C10 5.5621 9.10457 4.66667 8 4.66667C6.89543 4.66667 6 5.5621 6 6.66667C6 7.77124 6.89543 8.66667 8 8.66667Z" stroke-width="1.3" stroke-linecap="round" stroke-linejoin="round"/>
  </symbol>

  <symbol id="icon-heart"  viewBox="0 0 25 22" xmlns="http://www.w3.org/2000/svg">
    <path d="M21.3401 3.60999C20.8294 3.099 20.2229 2.69364 19.5555 2.41708C18.888 2.14052 18.1726 1.99817 17.4501 1.99817C16.7276 1.99817 16.0122 2.14052 15.3448 2.41708C14.6773 2.69364 14.0709 3.099 13.5601 3.60999L12.5001 4.66999L11.4401 3.60999C10.4084 2.5783 9.00915 1.9987 7.55012 1.9987C6.09108 1.9987 4.69181 2.5783 3.66012 3.60999C2.62843 4.64169 2.04883 6.04096 2.04883 7.49999C2.04883 8.95903 2.62843 10.3583 3.66012 11.39L4.72012 12.45L12.5001 20.23L20.2801 12.45L21.3401 11.39C21.8511 10.8792 22.2565 10.2728 22.533 9.60535C22.8096 8.93789 22.9519 8.22248 22.9519 7.49999C22.9519 6.77751 22.8096 6.0621 22.533 5.39464C22.2565 4.72718 21.8511 4.12075 21.3401 3.60999Z" stroke-width="2.3" stroke-linecap="round" stroke-linejoin="round"/>
  </symbol>

  <symbol id="icon-child"  viewBox="0 0 384 512" xmlns="http://www.w3.org/2000/svg">
    <path d="M256 64A64 64 0 1 0 128 64a64 64 0 1 0 128 0zM152.9 169.3c-23.7-8.4-44.5-24.3-58.8-45.8L74.6 94.2C64.8 79.5 45 75.6 30.2 85.4s-18.7 29.7-8.9 44.4L40.9 159c18.1 27.1 42.8 48.4 71.1 62.4V480c0 17.7 14.3 32 32 32s32-14.3 32-32V384h32v96c0 17.7 14.3 32 32 32s32-14.3 32-32V221.6c29.1-14.2 54.4-36.2 72.7-64.2l18.2-27.9c9.6-14.8 5.4-34.6-9.4-44.3s-34.6-5.5-44.3 9.4L291 122.4c-21.8 33.4-58.9 53.6-98.8 53.6c-12.6 0-24.9-2-36.6-5.8c-.9-.3-1.8-.7-2.7-.9z"></path>
  </symbol>

  <symbol id="icon-adults"  viewBox="0 0 20 14" xmlns="http://www.w3.org/2000/svg">
    <path d="M5.66666 12.0834H2.91666C2.74999 12.0834 2.66666 12 2.58333 11.9167C2.49999 11.8334 2.41666 11.6667 2.49999 11.5C2.99999 10.0834 4.24999 9.25004 5.66666 9.25004C7.41666 9.25004 8.83333 7.75004 8.83333 6.00004C8.83333 4.25004 7.41666 2.58337 5.66666 2.58337C3.91666 2.58337 2.49999 4.08337 2.49999 5.91671C2.49999 6.75004 2.83333 7.58337 3.33333 8.16671C2.24999 8.75004 1.41666 9.66671 0.91666 10.9167C0.749994 11.5 0.833327 12.25 1.24999 12.8334C1.66666 13.4167 2.24999 13.75 2.91666 13.75H5.66666C6.16666 13.75 6.49999 13.4167 6.49999 12.9167C6.49999 12.4167 6.16666 12.0834 5.66666 12.0834ZM4.16666 5.91671C4.16666 5.00004 4.83333 4.33337 5.66666 4.33337C6.49999 4.33337 7.16666 5.08337 7.16666 5.91671C7.16666 6.83337 6.49999 7.50004 5.66666 7.50004C4.83333 7.50004 4.16666 6.75004 4.16666 5.91671Z"/>
    <path d="M19.0833 10.4167C18.5 8.83336 17.3333 7.6667 16 7.00003C16.75 6.33336 17.1666 5.33336 17.1666 4.1667C17.1666 2.00003 15.5 0.250031 13.5 0.250031C11.5 0.250031 9.83331 2.00003 9.83331 4.1667C9.83331 5.25003 10.25 6.25003 11 7.00003C9.66664 7.6667 8.49998 8.83336 7.91664 10.4167C7.49998 11.1667 7.66664 12 8.08331 12.6667C8.49998 13.3334 9.24998 13.6667 9.99998 13.6667H16.9166C17.6666 13.6667 18.4166 13.25 18.8333 12.6667C19.3333 12 19.4166 11.1667 19.0833 10.4167ZM11.4166 4.25003C11.4166 3.00003 12.3333 2.00003 13.4166 2.00003C14.5 2.00003 15.4166 3.00003 15.4166 4.25003C15.4166 5.50003 14.5 6.50003 13.4166 6.50003C12.3333 6.50003 11.4166 5.4167 11.4166 4.25003ZM17.4166 11.75C17.3333 11.8334 17.1666 12.0834 16.9166 12.0834H9.99998C9.66664 12.0834 9.49998 11.8334 9.49998 11.75C9.41664 11.6667 9.24998 11.3334 9.41665 11C10.0833 9.25003 11.75 8.08336 13.5 8.08336C15.25 8.08336 16.9166 9.25003 17.5833 11C17.6666 11.3334 17.5 11.6667 17.4166 11.75Z"/>
  </symbol>

  <symbol id="icon-petrol" viewBox="0 0 32 32" xmlns="http://www.w3.org/2000/svg">
  <path d="M26.36 9.64l0.013-0.013-4.96-4.96-1.413 1.413 2.813 2.813c-1.253 0.48-2.147 1.68-2.147 3.107 0 0.438 0.086 0.871 0.254 1.276s0.413 0.772 0.723 1.081c0.625 0.625 1.473 0.976 2.357 0.976 0.48 0 0.92-0.107 1.333-0.28v9.613c0 0.354-0.14 0.693-0.391 0.943s-0.589 0.391-0.943 0.391c-0.354 0-0.693-0.14-0.943-0.391s-0.391-0.589-0.391-0.943v-6c0-0.707-0.281-1.386-0.781-1.886s-1.178-0.781-1.886-0.781h-1.333v-9.333c0-0.707-0.281-1.386-0.781-1.886s-1.178-0.781-1.886-0.781h-8c-0.707 0-1.386 0.281-1.886 0.781s-0.781 1.178-0.781 1.886v21.333h13.333v-10h2v6.667c0 0.884 0.351 1.732 0.976 2.357s1.473 0.976 2.357 0.976c0.438 0 0.871-0.086 1.276-0.254s0.772-0.413 1.081-0.723c0.309-0.309 0.555-0.677 0.723-1.081s0.254-0.838 0.254-1.276v-12.667c0-0.92-0.373-1.76-0.973-2.36zM16 18v7.333h-8v-9.333h8v2zM16 13.333h-8v-6.667h8v6.667zM24 13.333c-0.354 0-0.693-0.14-0.943-0.39s-0.391-0.589-0.391-0.943 0.14-0.693 0.391-0.943c0.25-0.25 0.589-0.39 0.943-0.39s0.693 0.14 0.943 0.39c0.25 0.25 0.391 0.589 0.391 0.943s-0.14 0.693-0.391 0.943c-0.25 0.25-0.589 0.39-0.943 0.39z"></path>
</symbol>

<symbol id="icon-kitchen" viewBox="0 0 32 32" xmlns="http://www.w3.org/2000/svg">
<path stroke-linejoin="round" stroke-linecap="round" stroke-miterlimit="4" stroke-width="2.4" d="M25.333 20v-16c-6.421 6.125-6.697 11.092-6.667 16h6.667zM25.333 20v8h-1.333v-4M10.667 5.333v22.667M6.667 5.333v4c0 1.061 0.421 2.078 1.172 2.828s1.768 1.172 2.828 1.172c1.061 0 2.078-0.421 2.828-1.172s1.172-1.768 1.172-2.828v-4"></path>
</symbol>

<symbol id="icon-transmission" viewBox="0 0 32 32" fill="none" stroke="var(--text-color)">
<path stroke-linejoin="round" stroke-linecap="round" stroke-miterlimit="4" stroke-width="2.4" d="M22.667 14.667h2c0.53 0 1.039-0.211 1.414-0.586s0.586-0.884 0.586-1.414-0.211-1.039-0.586-1.414c-0.375-0.375-0.884-0.586-1.414-0.586h-2v6.667M22.667 22.667v5.333h1.333c0.707 0 1.386-0.281 1.886-0.781s0.781-1.178 0.781-1.886c0-0.707-0.281-1.385-0.781-1.886s-1.178-0.781-1.886-0.781h-1.333zM4 6.667c0 0.707 0.281 1.386 0.781 1.886s1.178 0.781 1.886 0.781c0.707 0 1.386-0.281 1.886-0.781s0.781-1.178 0.781-1.886c0-0.707-0.281-1.386-0.781-1.886s-1.178-0.781-1.886-0.781c-0.707 0-1.386 0.281-1.886 0.781s-0.781 1.178-0.781 1.886z"></path>
<path stroke-linejoin="round" stroke-linecap="round" stroke-miterlimit="4" stroke-width="2.4" d="M6.667 9.333v4c0 0.354 0.14 0.693 0.391 0.943s0.589 0.391 0.943 0.391h4M12 14.667v9.333c0 0.354 0.14 0.693 0.391 0.943s0.589 0.39 0.943 0.39h4M12 14.667h5.333"></path>
</symbol>

<symbol id="icon-bedroom" fill="none" stroke="var(--text-color)" viewBox="0 0 32 32" xmlns="http://www.w3.org/2000/svg">
<path stroke-linejoin="round" stroke-linecap="round" stroke-miterlimit="4" stroke-width="2.24" d="M3 26v-7c0.003-1.060 0.426-2.076 1.175-2.825s1.765-1.172 2.825-1.175h18c1.060 0.003 2.076 0.426 2.825 1.175s1.172 1.765 1.175 2.825v7M24 15h-18v-6.5c0.002-0.662 0.266-1.297 0.734-1.766s1.103-0.732 1.766-0.734h15c0.662 0.002 1.297 0.266 1.766 0.734s0.732 1.103 0.734 1.766v6.5h-2z"></path>
<path stroke-linejoin="round" stroke-linecap="round" stroke-miterlimit="4" stroke-width="2.24" d="M3 26v-0.5c0.001-0.397 0.16-0.778 0.441-1.059s0.662-0.44 1.059-0.441h23c0.397 0.001 0.778 0.16 1.059 0.441s0.44 0.662 0.441 1.059v0.5M7 15v-1c0.002-0.53 0.213-1.038 0.587-1.413s0.883-0.586 1.413-0.587h5c0.53 0.002 1.038 0.213 1.413 0.587s0.586 0.883 0.587 1.413M16 14v1M16 14c0.001-0.53 0.213-1.038 0.587-1.413s0.883-0.586 1.413-0.587h5c0.53 0.002 1.038 0.213 1.413 0.587s0.586 0.883 0.587 1.413v1"></path>
</symbol>


<symbol id="icon-toilet" stroke="var(--text-color)" viewBox="0 0 32 32" xmlns="http://www.w3.org/2000/svg">
<path d="M24 4c1.939 0 3.269 1.647 4.040 3.313 0.761 1.653 1.224 3.811 1.287 6.145l0.007 0.541v12.667c0 0.18-0.036 0.357-0.106 0.523s-0.173 0.315-0.303 0.439c-0.13 0.125-0.283 0.222-0.451 0.285s-0.347 0.093-0.527 0.086l-0.165-0.019-3.781-0.629-3.781 0.629c-0.16 0.027-0.324 0.024-0.483-0.008l-0.157-0.041-3.579-1.193-3.579 1.193c-0.188 0.063-0.387 0.083-0.583 0.059s-0.385-0.092-0.552-0.197-0.309-0.248-0.414-0.415c-0.105-0.167-0.172-0.356-0.196-0.553l-0.009-0.159v-3.903c-0.708 0.733-1.595 1.236-2.667 1.236-1.939 0-3.269-1.647-4.040-3.313-0.819-1.78-1.293-4.145-1.293-6.687s0.473-4.907 1.293-6.687c0.735-1.592 1.981-3.164 3.78-3.303l0.26-0.011h16zM24 6.667h-12.291c0.12 0.213 0.229 0.429 0.329 0.647 0.821 1.78 1.295 4.145 1.295 6.687v10.817l2.245-0.749c0.274-0.091 0.569-0.091 0.843 0l3.687 1.229 3.673-0.613c0.144-0.024 0.293-0.024 0.437 0l2.448 0.409v-11.093c0-2.245-0.423-4.213-1.049-5.569-0.677-1.471-1.347-1.764-1.617-1.764zM8 6.667c-0.271 0-0.94 0.293-1.617 1.764-0.627 1.356-1.049 3.324-1.049 5.569s0.423 4.213 1.049 5.569c0.677 1.471 1.347 1.764 1.617 1.764s0.94-0.293 1.617-1.764c0.627-1.356 1.049-3.324 1.049-5.569s-0.423-4.213-1.049-5.569c-0.677-1.471-1.347-1.764-1.617-1.764zM8 11.333c0.736 0 1.333 1.193 1.333 2.667s-0.597 2.667-1.333 2.667c-0.736 0-1.333-1.193-1.333-2.667s0.597-2.667 1.333-2.667z"></path>
</symbol>

<symbol id="icon-conditioner" fill="none" stroke="var(--text-color)" viewBox="0 0 32 32" xmlns="http://www.w3.org/2000/svg">
<path stroke-linejoin="round" stroke-linecap="round" stroke-miterlimit="4" stroke-width="2.4" d="M28.572 1.143h-25.143c-0.606 0-1.188 0.241-1.616 0.669s-0.669 1.010-0.669 1.616v11.429c0 0.606 0.241 1.188 0.669 1.616s1.010 0.669 1.616 0.669h25.143c0.606 0 1.188-0.241 1.616-0.669s0.669-1.010 0.669-1.616v-11.429c0-0.606-0.241-1.188-0.669-1.616s-1.010-0.669-1.616-0.669z"></path>
<path stroke-linejoin="round" stroke-linecap="round" stroke-miterlimit="4" stroke-width="2.4" d="M25.143 17.143v-4.571c0-0.606-0.241-1.188-0.669-1.616s-1.010-0.669-1.616-0.669h-13.714c-0.606 0-1.188 0.241-1.616 0.669s-0.669 1.010-0.669 1.616v4.571M5.714 28.572h0.229c0.849 0 1.663-0.337 2.263-0.937s0.937-1.414 0.937-2.263v-2.514M26.285 28.572h-0.228c-0.849 0-1.663-0.337-2.263-0.937s-0.937-1.414-0.937-2.263v-2.514M16 30.857v-8"></path>
</symbol>

<symbol id="icon-radio" fill="none"  viewBox="0 0 32 32" xmlns="http://www.w3.org/2000/svg">
<path stroke-linejoin="miter" stroke-linecap="butt" stroke-miterlimit="4" stroke-width="2.0800" d="M2.666 18.667c0-5.028 0-7.543 1.563-9.104 1.561-1.563 4.076-1.563 9.104-1.563h5.333c5.028 0 7.543 0 9.104 1.563 1.563 1.561 1.563 4.076 1.563 9.104s0 7.543-1.563 9.104c-1.561 1.563-4.076 1.563-9.104 1.563h-5.333c-5.028 0-7.543 0-9.104-1.563-1.563-1.561-1.563-4.076-1.563-9.104z"></path>
<path stroke-linejoin="miter" stroke-linecap="butt" stroke-miterlimit="4" stroke-width="2.0800" d="M6.666 14.667c0-0.707 0.281-1.386 0.781-1.886s1.178-0.781 1.886-0.781h13.333c0.707 0 1.386 0.281 1.886 0.781s0.781 1.178 0.781 1.886-0.281 1.386-0.781 1.886c-0.5 0.5-1.178 0.781-1.886 0.781h-13.333c-0.707 0-1.386-0.281-1.886-0.781s-0.781-1.178-0.781-1.886zM12 22.667c0 0.53-0.211 1.039-0.586 1.414s-0.884 0.586-1.414 0.586-1.039-0.211-1.414-0.586c-0.375-0.375-0.586-0.884-0.586-1.414s0.211-1.039 0.586-1.414 0.884-0.586 1.414-0.586c0.53 0 1.039 0.211 1.414 0.586s0.586 0.884 0.586 1.414z"></path>
<path stroke-linejoin="miter" stroke-linecap="round" stroke-miterlimit="4" stroke-width="2.0800" d="M20 15.333v2M17.333 22.667h6.667M8.666 8l11.333-5.333"></path>
</symbol>

<symbol id="icon-shower" fill="none" stroke="var(--text-color)" viewBox="0 0 31 32" xmlns="http://www.w3.org/2000/svg">
<path stroke-linejoin="round" stroke-linecap="round" stroke-miterlimit="4" stroke-width="1.9394" d="M5.172 5.657l3.232 3.232M17.454 8.889c-1.204-1.18-2.826-1.837-4.512-1.829s-3.301 0.682-4.493 1.874c-1.192 1.192-1.866 2.807-1.874 4.493s0.649 3.308 1.829 4.512M19.394 6.949l-12.929 12.929M18.101 22.465v0.013M12.929 21.172v0.013M16.808 17.293v0.013M20.687 13.414v0.013M14.222 26.343v0.013M21.98 18.586v0.013M25.859 14.707v0.013"></path>
</symbol>

<symbol id="icon-hob" viewBox="0 0 32 32" xmlns="http://www.w3.org/2000/svg">
<path fill="none"  stroke-linejoin="miter" stroke-linecap="butt" stroke-miterlimit="4" stroke-width="2.4" d="M12 6.667h16c0.354 0 0.693 0.14 0.943 0.391s0.391 0.589 0.391 0.943v17.333c0 0.354-0.14 0.693-0.391 0.943s-0.589 0.391-0.943 0.391h-16M12 6.667h-8c-0.354 0-0.693 0.14-0.943 0.391s-0.391 0.589-0.391 0.943v17.333c0 0.354 0.14 0.693 0.391 0.943s0.589 0.391 0.943 0.391h8M12 6.667v20"></path>
<path fill="none"  stroke-linejoin="round" stroke-linecap="round" stroke-miterlimit="4" stroke-width="2.4" d="M7.333 11.333v2.667M24.666 10.667l-8 11.333"></path>
<path d="M8.667 18c0-0.736-0.597-1.333-1.333-1.333s-1.333 0.597-1.333 1.333c0 0.736 0.597 1.333 1.333 1.333s1.333-0.597 1.333-1.333z"></path>
<path d="M8.667 22c0-0.736-0.597-1.333-1.333-1.333s-1.333 0.597-1.333 1.333c0 0.736 0.597 1.333 1.333 1.333s1.333-0.597 1.333-1.333z"></path>
</symbol>

<symbol id="icon-cd" fill="none"  viewBox="0 0 32 32" xmlns="http://www.w3.org/2000/svg">
<path stroke-linejoin="miter" stroke-linecap="butt" stroke-miterlimit="4" stroke-width="2.4" d="M16 28c6.627 0 12-5.373 12-12s-5.373-12-12-12c-6.627 0-12 5.373-12 12s5.373 12 12 12z"></path>
<path stroke-linejoin="miter" stroke-linecap="round" stroke-miterlimit="4" stroke-width="2.4" d="M8.666 16c0-4.050 3.283-7.333 7.333-7.333"></path>
<path stroke-linejoin="miter" stroke-linecap="butt" stroke-miterlimit="4" stroke-width="2.4" d="M16 19.333c1.841 0 3.333-1.492 3.333-3.333s-1.492-3.333-3.333-3.333c-1.841 0-3.333 1.492-3.333 3.333s1.492 3.333 3.333 3.333z"></path>
</symbol>

<symbol id="icon-gas"  viewBox="0 0 32 32">
<path d="M25.072 13.991c-0.368-0.453-0.816-0.846-1.232-1.239-1.072-0.907-2.288-1.556-3.311-2.508-2.384-2.206-2.912-5.848-1.392-8.644-1.52 0.348-2.848 1.133-3.983 1.995-4.143 3.143-5.775 8.689-3.823 13.449 0.064 0.151 0.128 0.302 0.128 0.499 0 0.332-0.24 0.635-0.56 0.756-0.368 0.151-0.752 0.060-1.056-0.181-0.091-0.071-0.167-0.159-0.224-0.257-1.808-2.161-2.096-5.259-0.88-7.737-2.672 2.055-4.127 5.531-3.919 8.81 0.096 0.756 0.192 1.511 0.464 2.267 0.224 0.907 0.656 1.813 1.136 2.614 1.728 2.614 4.719 4.488 7.935 4.866 3.423 0.408 7.087-0.181 9.71-2.418 2.927-2.508 3.951-6.528 2.448-9.974l-0.208-0.393c-0.336-0.695-1.232-1.904-1.232-1.904zM20.017 23.512c-0.448 0.363-1.184 0.756-1.76 0.907-1.792 0.604-3.583-0.242-4.639-1.239 1.904-0.423 3.039-1.753 3.375-3.098 0.272-1.209-0.24-2.206-0.448-3.37-0.192-1.118-0.16-2.070 0.272-3.113 0.304 0.574 0.624 1.148 1.008 1.602 1.232 1.511 3.167 2.176 3.583 4.231 0.064 0.212 0.096 0.423 0.096 0.65 0.048 1.239-0.528 2.599-1.488 3.43z"></path>
</symbol>

<symbol id="icon-freezer" fill="none" stroke="var(--text-color)" viewBox="0 0 32 32">
<path stroke-linejoin="round" stroke-linecap="round" stroke-miterlimit="4" stroke-width="2.0800" d="M23.4 3h-14.793c-1.105 0-2 0.895-2 2v20.387c0 1.104 0.895 2 2 2h14.793c1.104 0 2-0.896 2-2v-20.387c0-1.105-0.896-2-2-2z"></path>
<path stroke-linejoin="round" stroke-linecap="round" stroke-miterlimit="4" stroke-width="2.0800" d="M6.607 13.127h18.787M10.313 10.567v-4.040M10.313 19.44v-4.040M8.427 27.387v0.7c0 0.241 0.095 0.472 0.265 0.643s0.4 0.268 0.642 0.27h1.647c0.242 0 0.475-0.096 0.646-0.268s0.268-0.404 0.268-0.646v-0.7M20.1 27.387v0.7c0 0.242 0.096 0.474 0.268 0.646s0.404 0.268 0.646 0.268h1.653c0.242 0 0.474-0.096 0.646-0.268s0.268-0.404 0.268-0.646v-0.7"></path>
</symbol>

<symbol id="icon-calendar" fill="none" stroke="var(--text-color)" viewBox="0 0 32 32">
<path stroke-linejoin="round" stroke-linecap="round" stroke-miterlimit="4" stroke-width="2.4" d="M25.333 5.333h-18.667c-1.473 0-2.667 1.194-2.667 2.667v18.667c0 1.473 1.194 2.667 2.667 2.667h18.667c1.473 0 2.667-1.194 2.667-2.667v-18.667c0-1.473-1.194-2.667-2.667-2.667z"></path>
<path stroke-linejoin="round" stroke-linecap="round" stroke-miterlimit="4" stroke-width="2.4" d="M21.334 2.667v5.333"></path>
<path stroke-linejoin="round" stroke-linecap="round" stroke-miterlimit="4" stroke-width="2.4" d="M10.666 2.667v5.333"></path>
<path stroke-linejoin="round" stroke-linecap="round" stroke-miterlimit="4" stroke-width="2.4" d="M4 13.333h24"></path>
</symbol>

<symbol id="icon-water" fill="none" stroke="var(--text-color)" viewBox="0 0 32 32">
<path stroke-linejoin="miter" stroke-linecap="butt" stroke-miterlimit="10" stroke-width="2.4" d="M25 20c0 5.523-3.477 9-9 9s-9-3.477-9-9c0-5.927 6.452-13.928 8.431-16.242 0.070-0.082 0.158-0.148 0.256-0.194s0.205-0.069 0.314-0.069c0.108 0 0.215 0.023 0.314 0.069s0.186 0.111 0.256 0.194c1.978 2.314 8.43 10.316 8.43 16.242z"></path>
<path stroke-linejoin="round" stroke-linecap="round" stroke-miterlimit="4" stroke-width="2.4" d="M21.5 20.5c0 1.193-0.474 2.338-1.318 3.182s-1.988 1.318-3.182 1.318"></path>
</symbol>

<symbol id="icon-close" viewBox="0 0 32 32">
<path stroke-linejoin="round" stroke-linecap="round" stroke-miterlimit="4" stroke-width="3" d="M24 8l-16 16"></path>
<path stroke-linejoin="round" stroke-linecap="round" stroke-miterlimit="4" stroke-width="3" d="M8 8l16 16"></path>
</symbol>

<symbol id="icon-microwave" fill="none" stroke="var(--text-color)" viewBox="0 0 32 32">
<path stroke-linejoin="round" stroke-linecap="round" stroke-miterlimit="4" stroke-width="2.24" d="M29.714 5.714h-27.429c-0.303 0-0.594 0.12-0.808 0.335s-0.335 0.505-0.335 0.808v18.286c0 0.303 0.12 0.594 0.335 0.808s0.505 0.335 0.808 0.335h27.429c0.303 0 0.594-0.12 0.808-0.335s0.335-0.505 0.335-0.808v-18.286c0-0.303-0.12-0.594-0.335-0.808s-0.505-0.335-0.808-0.335z"></path>
<path stroke-linejoin="round" stroke-linecap="round" stroke-miterlimit="4" stroke-width="2.24" d="M25.143 11.428h1.143M25.143 16h1.143M19.428 10.286h-12.571c-0.303 0-0.594 0.12-0.808 0.335s-0.335 0.505-0.335 0.808v9.143c0 0.303 0.12 0.594 0.335 0.808s0.505 0.335 0.808 0.335h12.571c0.303 0 0.594-0.12 0.808-0.335s0.335-0.505 0.335-0.808v-9.143c0-0.303-0.12-0.594-0.335-0.808s-0.505-0.335-0.808-0.335z"></path>
</symbol>

</svg>

 